<?xml version="1.0" standalone="no"?>
<!DOCTYPE svg PUBLIC "-//W3C//DTD SVG 20010904//EN"
 "http://www.w3.org/TR/2001/REC-SVG-20010904/DTD/svg10.dtd">
<svg version="1.0" xmlns="http://www.w3.org/2000/svg"
 width="280.000000pt" height="280.000000pt" viewBox="0 0 280.000000 280.000000"
 preserveAspectRatio="xMidYMid meet">
<metadata>
Created by potrace 1.11, written by Peter Selinger 2001-2013
</metadata>
<g transform="translate(0.000000,280.000000) scale(0.100000,-0.100000)"
fill="#000000" stroke="none">
<path d="M400 1415 l0 -1215 70 0 69 0 173 250 c94 138 174 250 178 250 3 -1
82 -113 175 -250 l170 -249 68 -1 67 0 0 323 c0 177 -3 724 -7 1215 l-6 893
-61 -3 -60 -3 -170 -237 c-94 -130 -174 -240 -177 -243 -4 -3 -85 104 -180
239 l-174 246 -67 0 -68 0 0 -1215z m667 -234 c-95 -138 -174 -250 -177 -250
-5 -1 -38 46 -253 361 l-100 147 174 244 174 243 177 -248 177 -248 -172 -249z"/>
<path d="M1450 1415 l0 -1215 64 0 64 0 172 250 c95 138 176 250 181 248 5 -2
84 -113 177 -248 l168 -245 67 -3 67 -3 0 1216 0 1215 -64 0 -65 0 -176 -245
c-97 -135 -177 -245 -179 -245 -1 0 -81 110 -176 245 l-174 245 -63 0 -63 0 0
-1215z m657 258 c92 -130 167 -240 166 -244 -2 -4 -33 -52 -71 -106 -38 -54
-114 -165 -171 -246 l-103 -148 -174 255 -175 256 171 240 c95 132 176 238
180 235 5 -3 84 -112 177 -242z"/>
</g>
</svg>
